<?xml version="1.0" encoding="UTF-8"?>
<svg xmlns="http://www.w3.org/2000/svg" xmlns:xlink="http://www.w3.org/1999/xlink" width="49px" height="49px" viewBox="0 0 49 27" version="1.1">
<g id="surface1">
<path style=" stroke:none;fill-rule:evenodd;fill:rgb(65.098039%,54.117647%,99.215686%);fill-opacity:1;" d="M -0.121094 -0.117188 C 3.417969 -0.117188 6.960938 -0.117188 10.5 -0.117188 C 12.148438 0.96875 13.839844 1.992188 15.570312 2.960938 C 15.429688 3.308594 15.230469 3.625 14.964844 3.90625 C 14.207031 3.316406 13.363281 3.039062 12.429688 3.078125 C 11.3125 3.746094 10.347656 4.574219 9.535156 5.566406 C 9.355469 5.535156 9.195312 5.574219 9.050781 5.683594 C 7.304688 7.355469 5.617188 9.054688 3.984375 10.777344 C 2.609375 10.769531 1.242188 10.691406 -0.121094 10.539062 C -0.121094 7.617188 -0.121094 4.699219 -0.121094 1.777344 C 0.84375 1.460938 0.84375 1.144531 -0.121094 0.828125 C -0.121094 0.511719 -0.121094 0.199219 -0.121094 -0.117188 Z M -0.121094 -0.117188 "/>
<path style=" stroke:none;fill-rule:evenodd;fill:rgb(65.490196%,58.431373%,98.431373%);fill-opacity:1;" d="M 10.5 -0.117188 C 23.292969 -0.117188 36.085938 -0.117188 48.878906 -0.117188 C 48.878906 4.539062 48.878906 9.199219 48.878906 13.855469 C 47.6875 13.609375 46.480469 13.453125 45.257812 13.382812 C 45.609375 12.964844 45.527344 12.648438 45.015625 12.433594 C 42.953125 8.515625 39.976562 5.433594 36.085938 3.199219 C 35.363281 3.394531 34.71875 3.710938 34.15625 4.144531 C 33.472656 4.28125 32.910156 4.597656 32.464844 5.09375 C 31.839844 5.242188 31.277344 5.515625 30.777344 5.921875 C 29.761719 6.800781 28.714844 7.628906 27.636719 8.40625 C 25.8125 7.625 23.960938 6.835938 22.085938 6.039062 C 21.941406 6.070312 21.859375 6.148438 21.84375 6.277344 C 20.558594 4.261719 19.027344 2.40625 17.257812 0.710938 C 17.03125 0.5625 16.828125 0.605469 16.65625 0.828125 C 16.371094 1.542969 16.089844 2.253906 15.808594 2.960938 C 15.730469 2.960938 15.648438 2.960938 15.570312 2.960938 C 13.839844 1.992188 12.148438 0.96875 10.5 -0.117188 Z M 10.5 -0.117188 "/>
<path style=" stroke:none;fill-rule:evenodd;fill:rgb(80.392157%,74.901961%,96.862745%);fill-opacity:1;" d="M -0.121094 0.828125 C 0.84375 1.144531 0.84375 1.460938 -0.121094 1.777344 C -0.121094 1.460938 -0.121094 1.144531 -0.121094 0.828125 Z M -0.121094 0.828125 "/>
<path style=" stroke:none;fill-rule:evenodd;fill:rgb(64.705882%,54.117647%,98.823529%);fill-opacity:1;" d="M 23.292969 9.59375 C 23.613281 10.617188 23.9375 11.640625 24.257812 12.671875 C 24.046875 12.640625 23.886719 12.71875 23.777344 12.90625 C 23.992188 13.519531 24.070312 14.152344 24.015625 14.800781 C 22.035156 14.21875 20.023438 13.742188 17.984375 13.382812 C 17.640625 13.042969 17.238281 12.808594 16.777344 12.671875 C 15.226562 11.046875 13.296875 10.335938 10.984375 10.539062 C 12.507812 7.941406 14.117188 5.414062 15.808594 2.960938 C 16.328125 2.421875 16.730469 1.789062 17.015625 1.066406 C 19.582031 3.582031 21.675781 6.421875 23.292969 9.59375 Z M 23.292969 9.59375 "/>
<path style=" stroke:none;fill-rule:evenodd;fill:rgb(78.823529%,76.862745%,96.470588%);fill-opacity:1;" d="M 45.742188 2.960938 C 45.984375 2.960938 46.222656 2.960938 46.464844 2.960938 C 46.464844 3.277344 46.464844 3.59375 46.464844 3.90625 C 46.222656 3.90625 45.984375 3.90625 45.742188 3.90625 C 45.742188 3.59375 45.742188 3.277344 45.742188 2.960938 Z M 45.742188 2.960938 "/>
<path style=" stroke:none;fill-rule:evenodd;fill:rgb(63.921569%,53.333333%,97.647059%);fill-opacity:1;" d="M 16.535156 12.671875 C 16.519531 12.800781 16.441406 12.878906 16.292969 12.90625 C 12.421875 12.089844 8.558594 11.378906 4.707031 10.777344 C 6.226562 8.96875 7.835938 7.230469 9.535156 5.566406 C 10.648438 4.78125 11.773438 3.992188 12.914062 3.199219 C 13.527344 3.488281 14.09375 3.84375 14.601562 4.261719 C 13.648438 5.542969 12.722656 6.84375 11.828125 8.171875 C 11.246094 9.148438 10.804688 10.175781 10.5 11.25 C 12.769531 10.722656 14.78125 11.195312 16.535156 12.671875 Z M 16.535156 12.671875 "/>
<path style=" stroke:none;fill-rule:evenodd;fill:rgb(65.098039%,58.431373%,98.039216%);fill-opacity:1;" d="M 45.015625 12.433594 C 44.761719 12.851562 44.359375 13.007812 43.808594 12.90625 C 38.550781 11.855469 33.402344 10.433594 28.363281 8.644531 C 29.59375 7.292969 30.960938 6.109375 32.464844 5.09375 C 33.148438 4.953125 33.710938 4.640625 34.15625 4.144531 C 34.882812 4.144531 35.527344 3.90625 36.085938 3.433594 C 39.566406 5.980469 42.542969 8.980469 45.015625 12.433594 Z M 45.015625 12.433594 "/>
<path style=" stroke:none;fill-rule:evenodd;fill:rgb(27.45098%,23.921569%,41.568627%);fill-opacity:1;" d="M 21.84375 6.277344 C 22.40625 7.375 22.96875 8.480469 23.535156 9.59375 C 23.453125 9.59375 23.375 9.59375 23.292969 9.59375 C 21.675781 6.421875 19.582031 3.582031 17.015625 1.066406 C 16.730469 1.789062 16.328125 2.421875 15.808594 2.960938 C 16.089844 2.253906 16.371094 1.542969 16.65625 0.828125 C 16.828125 0.605469 17.03125 0.5625 17.257812 0.710938 C 19.027344 2.40625 20.558594 4.261719 21.84375 6.277344 Z M 21.84375 6.277344 "/>
<path style=" stroke:none;fill-rule:evenodd;fill:rgb(18.823529%,17.254902%,28.627451%);fill-opacity:1;" d="M 34.15625 4.144531 C 33.710938 4.640625 33.148438 4.953125 32.464844 5.09375 C 32.910156 4.597656 33.472656 4.28125 34.15625 4.144531 Z M 34.15625 4.144531 "/>
<path style=" stroke:none;fill-rule:evenodd;fill:rgb(27.058824%,24.313725%,40.784314%);fill-opacity:1;" d="M 45.015625 12.433594 C 42.542969 8.980469 39.566406 5.980469 36.085938 3.433594 C 35.527344 3.90625 34.882812 4.144531 34.15625 4.144531 C 34.71875 3.710938 35.363281 3.394531 36.085938 3.199219 C 39.976562 5.433594 42.953125 8.515625 45.015625 12.433594 Z M 45.015625 12.433594 "/>
<path style=" stroke:none;fill-rule:evenodd;fill:rgb(25.098039%,20.784314%,38.039216%);fill-opacity:1;" d="M 15.570312 2.960938 C 15.648438 2.960938 15.730469 2.960938 15.808594 2.960938 C 14.117188 5.414062 12.507812 7.941406 10.984375 10.539062 C 13.296875 10.335938 15.226562 11.046875 16.777344 12.671875 C 16.695312 12.671875 16.613281 12.671875 16.535156 12.671875 C 14.78125 11.195312 12.769531 10.722656 10.5 11.25 C 10.804688 10.175781 11.246094 9.148438 11.828125 8.171875 C 12.722656 6.84375 13.648438 5.542969 14.601562 4.261719 C 14.09375 3.84375 13.527344 3.488281 12.914062 3.199219 C 11.773438 3.992188 10.648438 4.78125 9.535156 5.566406 C 10.347656 4.574219 11.3125 3.746094 12.429688 3.078125 C 13.363281 3.039062 14.207031 3.316406 14.964844 3.90625 C 15.230469 3.625 15.429688 3.308594 15.570312 2.960938 Z M 15.570312 2.960938 "/>
<path style=" stroke:none;fill-rule:evenodd;fill:rgb(63.921569%,53.333333%,97.254902%);fill-opacity:1;" d="M 27.636719 8.40625 C 26.480469 9.621094 25.511719 10.964844 24.742188 12.433594 C 24.25 11.542969 23.847656 10.597656 23.535156 9.59375 C 22.96875 8.480469 22.40625 7.375 21.84375 6.277344 C 21.859375 6.148438 21.941406 6.070312 22.085938 6.039062 C 23.960938 6.835938 25.8125 7.625 27.636719 8.40625 Z M 27.636719 8.40625 "/>
<path style=" stroke:none;fill-rule:evenodd;fill:rgb(78.823529%,76.862745%,96.470588%);fill-opacity:1;" d="M 37.777344 7.460938 C 38.015625 7.460938 38.257812 7.460938 38.5 7.460938 C 38.5 7.777344 38.5 8.09375 38.5 8.40625 C 38.257812 8.40625 38.015625 8.40625 37.777344 8.40625 C 37.777344 8.09375 37.777344 7.777344 37.777344 7.460938 Z M 37.777344 7.460938 "/>
<path style=" stroke:none;fill-rule:evenodd;fill:rgb(65.098039%,54.117647%,98.823529%);fill-opacity:1;" d="M 28.363281 8.644531 C 33.402344 10.433594 38.550781 11.855469 43.808594 12.90625 C 41.972656 13.242188 40.203125 13.792969 38.5 14.566406 C 38.089844 14.527344 37.6875 14.566406 37.292969 14.683594 C 35.328125 15.628906 33.398438 16.617188 31.5 17.644531 C 29.335938 16.621094 27.085938 15.832031 24.742188 15.277344 C 24.742188 14.566406 24.742188 13.855469 24.742188 13.144531 C 24.742188 12.988281 24.742188 12.828125 24.742188 12.671875 C 25.679688 11.117188 26.886719 9.777344 28.363281 8.644531 Z M 28.363281 8.644531 "/>
<path style=" stroke:none;fill-rule:evenodd;fill:rgb(65.098039%,58.039216%,97.647059%);fill-opacity:1;" d="M -0.121094 10.539062 C 1.242188 10.691406 2.609375 10.769531 3.984375 10.777344 C 3.324219 11.519531 3 12.386719 3.015625 13.382812 C 3.914062 13.398438 4.800781 13.515625 5.671875 13.738281 C 4.90625 14.488281 4.144531 15.238281 3.378906 15.988281 C 3.300781 16.351562 3.417969 16.667969 3.742188 16.933594 C 3.46875 17.199219 3.308594 17.515625 3.257812 17.882812 C 2.542969 18.324219 2.097656 18.953125 1.929688 19.777344 C 1.875 21.601562 1.753906 23.417969 1.570312 25.222656 C 0.601562 25.910156 0.679688 26.304688 1.808594 26.40625 C 3.003906 26.136719 4.210938 25.976562 5.429688 25.933594 C 5.269531 26.25 5.109375 26.566406 4.949219 26.882812 C 3.257812 26.882812 1.570312 26.882812 -0.121094 26.882812 C -0.121094 21.433594 -0.121094 15.988281 -0.121094 10.539062 Z M -0.121094 10.539062 "/>
<path style=" stroke:none;fill-rule:evenodd;fill:rgb(81.176471%,76.078431%,96.470588%);fill-opacity:1;" d="M 18.222656 10.777344 C 18.464844 10.777344 18.707031 10.777344 18.949219 10.777344 C 18.929688 11.734375 18.609375 11.890625 17.984375 11.25 C 18.070312 11.089844 18.152344 10.929688 18.222656 10.777344 Z M 18.222656 10.777344 "/>
<path style=" stroke:none;fill-rule:evenodd;fill:rgb(25.882353%,21.960784%,39.607843%);fill-opacity:1;" d="M 32.464844 5.09375 C 30.960938 6.109375 29.59375 7.292969 28.363281 8.644531 C 26.886719 9.777344 25.679688 11.117188 24.742188 12.671875 C 24.742188 12.59375 24.742188 12.511719 24.742188 12.433594 C 25.511719 10.964844 26.480469 9.621094 27.636719 8.40625 C 28.714844 7.628906 29.761719 6.800781 30.777344 5.921875 C 31.277344 5.515625 31.839844 5.242188 32.464844 5.09375 Z M 32.464844 5.09375 "/>
<path style=" stroke:none;fill-rule:evenodd;fill:rgb(84.313725%,80%,98.431373%);fill-opacity:1;" d="M 10.984375 14.328125 C 10.671875 14.386719 10.429688 14.304688 10.257812 14.09375 C 10.351562 13.390625 10.191406 12.757812 9.777344 12.199219 C 9.984375 11.941406 10.226562 11.902344 10.5 12.078125 C 10.917969 12.765625 11.078125 13.515625 10.984375 14.328125 Z M 10.984375 14.328125 "/>
<path style=" stroke:none;fill-rule:evenodd;fill:rgb(64.705882%,57.647059%,96.862745%);fill-opacity:1;" d="M 4.707031 10.777344 C 8.558594 11.378906 12.421875 12.089844 16.292969 12.90625 C 16.441406 12.878906 16.519531 12.800781 16.535156 12.671875 C 16.613281 12.671875 16.695312 12.671875 16.777344 12.671875 C 18.890625 14.945312 20.785156 17.394531 22.449219 20.011719 C 22.683594 20.3125 22.765625 20.628906 22.691406 20.960938 C 19.265625 17.917969 15.363281 15.710938 10.984375 14.328125 C 11.078125 13.515625 10.917969 12.765625 10.5 12.078125 C 10.226562 11.902344 9.984375 11.941406 9.777344 12.199219 C 10.191406 12.757812 10.351562 13.390625 10.257812 14.09375 C 7.902344 13.757812 5.570312 13.324219 3.257812 12.789062 C 3.59375 12.007812 4.078125 11.335938 4.707031 10.777344 Z M 4.707031 10.777344 "/>
<path style=" stroke:none;fill-rule:evenodd;fill:rgb(79.215686%,77.647059%,96.470588%);fill-opacity:1;" d="M 7.601562 11.722656 C 7.964844 11.703125 8.207031 11.863281 8.328125 12.199219 C 8.003906 12.511719 7.683594 12.511719 7.363281 12.199219 C 7.449219 12.035156 7.53125 11.878906 7.601562 11.722656 Z M 7.601562 11.722656 "/>
<path style=" stroke:none;fill-rule:evenodd;fill:rgb(63.921569%,53.333333%,97.254902%);fill-opacity:1;" d="M 45.257812 13.382812 C 46.480469 13.453125 47.6875 13.609375 48.878906 13.855469 C 48.878906 14.171875 48.878906 14.488281 48.878906 14.800781 C 47.765625 15.421875 46.722656 16.132812 45.742188 16.933594 C 45.53125 16.964844 45.367188 16.886719 45.257812 16.699219 C 45.457031 16.488281 45.699219 16.410156 45.984375 16.460938 C 46.019531 16.210938 45.980469 15.972656 45.863281 15.75 C 45.074219 14.953125 44.230469 14.242188 43.328125 13.617188 C 43.953125 13.386719 44.59375 13.308594 45.257812 13.382812 Z M 45.257812 13.382812 "/>
<path style=" stroke:none;fill-rule:evenodd;fill:rgb(64.313725%,57.254902%,96.470588%);fill-opacity:1;" d="M 24.257812 12.671875 C 24.210938 15.597656 24.289062 18.515625 24.5 21.433594 C 24.59375 23.195312 24.351562 23.273438 23.777344 21.671875 C 22.144531 18.703125 20.210938 15.9375 17.984375 13.382812 C 20.023438 13.742188 22.035156 14.21875 24.015625 14.800781 C 24.070312 14.152344 23.992188 13.519531 23.777344 12.90625 C 23.886719 12.71875 24.046875 12.640625 24.257812 12.671875 Z M 24.257812 12.671875 "/>
<path style=" stroke:none;fill-rule:evenodd;fill:rgb(80.784314%,75.294118%,96.862745%);fill-opacity:1;" d="M 36.085938 13.382812 C 36.53125 13.316406 36.855469 13.472656 37.050781 13.855469 C 36.855469 14.238281 36.53125 14.394531 36.085938 14.328125 C 36.085938 14.011719 36.085938 13.699219 36.085938 13.382812 Z M 36.085938 13.382812 "/>
<path style=" stroke:none;fill-rule:evenodd;fill:rgb(63.921569%,53.333333%,97.254902%);fill-opacity:1;" d="M 33.429688 18.355469 C 32.972656 18.285156 32.570312 18.128906 32.222656 17.882812 C 34.246094 16.652344 36.339844 15.546875 38.5 14.566406 C 39.839844 14.308594 41.164062 13.992188 42.484375 13.617188 C 43.597656 14.277344 44.601562 15.066406 45.5 15.988281 C 41.347656 16.183594 37.328125 16.972656 33.429688 18.355469 Z M 33.429688 18.355469 "/>
<path style=" stroke:none;fill-rule:evenodd;fill:rgb(63.921569%,56.862745%,95.686275%);fill-opacity:1;" d="M 10.742188 14.800781 C 13.273438 15.488281 15.6875 16.472656 17.984375 17.761719 C 19.941406 19.09375 21.792969 20.554688 23.535156 22.144531 C 23.683594 22.554688 23.925781 22.910156 24.257812 23.210938 C 23.828125 23.238281 23.425781 23.121094 23.050781 22.855469 C 21.402344 21.808594 19.628906 21.019531 17.742188 20.488281 C 15.335938 19.359375 12.84375 18.410156 10.257812 17.644531 C 10.570312 16.726562 10.730469 15.777344 10.742188 14.800781 Z M 10.742188 14.800781 "/>
<path style=" stroke:none;fill-rule:evenodd;fill:rgb(86.27451%,81.568627%,99.215686%);fill-opacity:1;" d="M 48.878906 14.800781 C 48.878906 15.117188 48.878906 15.433594 48.878906 15.75 C 48 16.296875 47.195312 16.929688 46.464844 17.644531 C 46.144531 17.488281 45.902344 17.25 45.742188 16.933594 C 46.722656 16.132812 47.765625 15.421875 48.878906 14.800781 Z M 48.878906 14.800781 "/>
<path style=" stroke:none;fill-rule:evenodd;fill:rgb(64.313725%,57.254902%,96.470588%);fill-opacity:1;" d="M 24.742188 13.144531 C 24.742188 13.855469 24.742188 14.566406 24.742188 15.277344 C 27.085938 15.832031 29.335938 16.621094 31.5 17.644531 C 31.050781 17.984375 30.648438 18.378906 30.292969 18.828125 C 28.375 20.234375 26.527344 21.734375 24.742188 23.328125 C 24.554688 19.894531 24.554688 16.5 24.742188 13.144531 Z M 24.742188 13.144531 "/>
<path style=" stroke:none;fill-rule:evenodd;fill:rgb(29.803922%,24.705882%,45.490196%);fill-opacity:1;" d="M 38.5 14.566406 C 36.339844 15.546875 34.246094 16.652344 32.222656 17.882812 C 31.582031 18.199219 30.9375 18.511719 30.292969 18.828125 C 30.648438 18.378906 31.050781 17.984375 31.5 17.644531 C 33.398438 16.617188 35.328125 15.628906 37.292969 14.683594 C 37.6875 14.566406 38.089844 14.527344 38.5 14.566406 Z M 38.5 14.566406 "/>
<path style=" stroke:none;fill-rule:evenodd;fill:rgb(64.313725%,53.72549%,98.039216%);fill-opacity:1;" d="M 48.878906 15.75 C 48.878906 19.460938 48.878906 23.171875 48.878906 26.882812 C 47.511719 26.882812 46.144531 26.882812 44.777344 26.882812 C 44.292969 26.328125 43.808594 25.777344 43.328125 25.222656 C 44.695312 25.320312 46.0625 25.398438 47.429688 25.460938 C 47.410156 24.789062 47.25 24.160156 46.949219 23.566406 C 46.949219 22.460938 46.949219 21.355469 46.949219 20.25 C 46.90625 19.527344 46.828125 18.894531 46.707031 18.355469 C 46.691406 18.09375 46.613281 17.855469 46.464844 17.644531 C 47.195312 16.929688 48 16.296875 48.878906 15.75 Z M 48.878906 15.75 "/>
<path style=" stroke:none;fill-rule:evenodd;fill:rgb(29.803922%,25.098039%,45.490196%);fill-opacity:1;" d="M 45.015625 12.433594 C 45.527344 12.648438 45.609375 12.964844 45.257812 13.382812 C 44.59375 13.308594 43.953125 13.386719 43.328125 13.617188 C 44.230469 14.242188 45.074219 14.953125 45.863281 15.75 C 45.980469 15.972656 46.019531 16.210938 45.984375 16.460938 C 45.699219 16.410156 45.457031 16.488281 45.257812 16.699219 C 45.367188 16.886719 45.53125 16.964844 45.742188 16.933594 C 45.902344 17.25 46.144531 17.488281 46.464844 17.644531 C 46.613281 17.855469 46.691406 18.09375 46.707031 18.355469 C 46.625 18.355469 46.546875 18.355469 46.464844 18.355469 C 46.203125 17.859375 45.800781 17.546875 45.257812 17.40625 C 44.925781 16.824219 44.402344 16.589844 43.691406 16.699219 C 40.382812 16.769531 37.207031 17.402344 34.15625 18.59375 C 33.765625 18.71875 33.363281 18.796875 32.949219 18.828125 C 33.109375 18.671875 33.269531 18.511719 33.429688 18.355469 C 37.328125 16.972656 41.347656 16.183594 45.5 15.988281 C 44.601562 15.066406 43.597656 14.277344 42.484375 13.617188 C 41.164062 13.992188 39.839844 14.308594 38.5 14.566406 C 40.203125 13.792969 41.972656 13.242188 43.808594 12.90625 C 44.359375 13.007812 44.761719 12.851562 45.015625 12.433594 Z M 45.015625 12.433594 "/>
<path style=" stroke:none;fill-rule:evenodd;fill:rgb(17.254902%,15.294118%,25.882353%);fill-opacity:1;" d="M 23.292969 9.59375 C 23.375 9.59375 23.453125 9.59375 23.535156 9.59375 C 23.847656 10.597656 24.25 11.542969 24.742188 12.433594 C 24.742188 12.511719 24.742188 12.59375 24.742188 12.671875 C 24.742188 12.828125 24.742188 12.988281 24.742188 13.144531 C 24.554688 16.5 24.554688 19.894531 24.742188 23.328125 C 24.902344 23.488281 25.0625 23.644531 25.222656 23.800781 C 25.125 23.949219 24.960938 24.027344 24.742188 24.039062 C 24.175781 23.765625 23.613281 23.527344 23.050781 23.328125 C 22.808594 23.117188 22.808594 22.957031 23.050781 22.855469 C 23.425781 23.121094 23.828125 23.238281 24.257812 23.210938 C 23.925781 22.910156 23.683594 22.554688 23.535156 22.144531 C 23.492188 21.910156 23.574219 21.753906 23.777344 21.671875 C 24.351562 23.273438 24.59375 23.195312 24.5 21.433594 C 24.289062 18.515625 24.210938 15.597656 24.257812 12.671875 C 23.9375 11.640625 23.613281 10.617188 23.292969 9.59375 Z M 23.292969 9.59375 "/>
<path style=" stroke:none;fill-rule:evenodd;fill:rgb(61.176471%,54.509804%,91.764706%);fill-opacity:1;" d="M 9.535156 17.882812 C 9.375 18.277344 9.210938 18.671875 9.050781 19.066406 C 7.503906 19.4375 5.453125 19.675781 2.898438 19.777344 C 2.457031 19.65625 2.414062 19.457031 2.777344 19.183594 C 7.925781 19.027344 7.925781 18.867188 2.777344 18.710938 C 3.09375 18.515625 3.257812 18.242188 3.257812 17.882812 C 3.742188 17.484375 4.226562 17.089844 4.707031 16.699219 C 6.335938 17.042969 7.945312 17.4375 9.535156 17.882812 Z M 9.535156 17.882812 "/>
<path style=" stroke:none;fill-rule:evenodd;fill:rgb(63.921569%,53.333333%,97.254902%);fill-opacity:1;" d="M 45.257812 17.40625 C 44.855469 17.644531 44.535156 17.960938 44.292969 18.355469 C 41.582031 18.523438 38.925781 19 36.328125 19.777344 C 36.167969 19.777344 36.003906 19.777344 35.84375 19.777344 C 35.207031 19.464844 34.644531 19.070312 34.15625 18.59375 C 37.207031 17.402344 40.382812 16.769531 43.691406 16.699219 C 44.402344 16.589844 44.925781 16.824219 45.257812 17.40625 Z M 45.257812 17.40625 "/>
<path style=" stroke:none;fill-rule:evenodd;fill:rgb(78.823529%,73.333333%,94.901961%);fill-opacity:1;" d="M 45.257812 17.40625 C 45.800781 17.546875 46.203125 17.859375 46.464844 18.355469 C 45.742188 18.355469 45.015625 18.355469 44.292969 18.355469 C 44.535156 17.960938 44.855469 17.644531 45.257812 17.40625 Z M 45.257812 17.40625 "/>
<path style=" stroke:none;fill-rule:evenodd;fill:rgb(81.176471%,77.254902%,93.72549%);fill-opacity:1;" d="M 9.535156 17.882812 C 9.773438 17.839844 9.933594 17.917969 10.015625 18.117188 C 9.886719 18.5 9.808594 18.894531 9.777344 19.300781 C 9.464844 19.359375 9.222656 19.28125 9.050781 19.066406 C 9.210938 18.671875 9.375 18.277344 9.535156 17.882812 Z M 9.535156 17.882812 "/>
<path style=" stroke:none;fill-rule:evenodd;fill:rgb(27.058824%,23.921569%,40.392157%);fill-opacity:1;" d="M 9.535156 5.566406 C 7.835938 7.230469 6.226562 8.96875 4.707031 10.777344 C 4.078125 11.335938 3.59375 12.007812 3.257812 12.789062 C 5.570312 13.324219 7.902344 13.757812 10.257812 14.09375 C 10.429688 14.304688 10.671875 14.386719 10.984375 14.328125 C 15.363281 15.710938 19.265625 17.917969 22.691406 20.960938 C 22.765625 20.628906 22.683594 20.3125 22.449219 20.011719 C 20.785156 17.394531 18.890625 14.945312 16.777344 12.671875 C 17.238281 12.808594 17.640625 13.042969 17.984375 13.382812 C 20.210938 15.9375 22.144531 18.703125 23.777344 21.671875 C 23.574219 21.753906 23.492188 21.910156 23.535156 22.144531 C 21.792969 20.554688 19.941406 19.09375 17.984375 17.761719 C 15.6875 16.472656 13.273438 15.488281 10.742188 14.800781 C 10.582031 14.800781 10.417969 14.800781 10.257812 14.800781 C 8.886719 14.230469 7.4375 13.953125 5.914062 13.972656 C 5.226562 14.609375 4.582031 15.28125 3.984375 15.988281 C 5.871094 16.609375 7.800781 17.082031 9.777344 17.40625 C 9.859375 17.605469 10.019531 17.683594 10.257812 17.644531 C 12.84375 18.410156 15.335938 19.359375 17.742188 20.488281 C 15.214844 19.554688 12.640625 18.765625 10.015625 18.117188 C 9.933594 17.917969 9.773438 17.839844 9.535156 17.882812 C 7.945312 17.4375 6.335938 17.042969 4.707031 16.699219 C 4.226562 17.089844 3.742188 17.484375 3.257812 17.882812 C 3.308594 17.515625 3.46875 17.199219 3.742188 16.933594 C 3.417969 16.667969 3.300781 16.351562 3.378906 15.988281 C 4.144531 15.238281 4.90625 14.488281 5.671875 13.738281 C 4.800781 13.515625 3.914062 13.398438 3.015625 13.382812 C 3 12.386719 3.324219 11.519531 3.984375 10.777344 C 5.617188 9.054688 7.304688 7.355469 9.050781 5.683594 C 9.195312 5.574219 9.355469 5.535156 9.535156 5.566406 Z M 9.535156 5.566406 "/>
<path style=" stroke:none;fill-rule:evenodd;fill:rgb(85.882353%,81.960784%,98.823529%);fill-opacity:1;" d="M 10.257812 14.800781 C 10.417969 14.800781 10.582031 14.800781 10.742188 14.800781 C 10.730469 15.777344 10.570312 16.726562 10.257812 17.644531 C 10.019531 17.683594 9.859375 17.605469 9.777344 17.40625 C 9.714844 16.480469 9.875 15.613281 10.257812 14.800781 Z M 10.257812 14.800781 "/>
<path style=" stroke:none;fill-rule:evenodd;fill:rgb(64.705882%,57.647059%,96.862745%);fill-opacity:1;" d="M 10.257812 14.800781 C 9.875 15.613281 9.714844 16.480469 9.777344 17.40625 C 7.800781 17.082031 5.871094 16.609375 3.984375 15.988281 C 4.582031 15.28125 5.226562 14.609375 5.914062 13.972656 C 7.4375 13.953125 8.886719 14.230469 10.257812 14.800781 Z M 10.257812 14.800781 "/>
<path style=" stroke:none;fill-rule:evenodd;fill:rgb(61.176471%,54.901961%,92.156863%);fill-opacity:1;" d="M 10.015625 18.117188 C 12.640625 18.765625 15.214844 19.554688 17.742188 20.488281 C 17.84375 20.65625 18.003906 20.777344 18.222656 20.84375 C 17.148438 20.835938 16.105469 20.636719 15.085938 20.25 C 13.324219 19.902344 11.550781 19.589844 9.777344 19.300781 C 9.808594 18.894531 9.886719 18.5 10.015625 18.117188 Z M 10.015625 18.117188 "/>
<path style=" stroke:none;fill-rule:evenodd;fill:rgb(62.745098%,55.686275%,94.117647%);fill-opacity:1;" d="M 34.15625 18.59375 C 34.644531 19.070312 35.207031 19.464844 35.84375 19.777344 C 33.410156 20.628906 30.914062 21.300781 28.363281 21.789062 C 28.910156 21.40625 29.390625 20.972656 29.808594 20.488281 C 30.898438 19.992188 31.941406 19.441406 32.949219 18.828125 C 33.363281 18.796875 33.765625 18.71875 34.15625 18.59375 Z M 34.15625 18.59375 "/>
<path style=" stroke:none;fill-rule:evenodd;fill:rgb(18.039216%,16.078431%,27.058824%);fill-opacity:1;" d="M 32.949219 18.828125 C 31.941406 19.441406 30.898438 19.992188 29.808594 20.488281 C 30.671875 19.628906 31.71875 19.078125 32.949219 18.828125 Z M 32.949219 18.828125 "/>
<path style=" stroke:none;fill-rule:evenodd;fill:rgb(15.294118%,13.72549%,22.352941%);fill-opacity:1;" d="M 3.257812 17.882812 C 3.257812 18.242188 3.09375 18.515625 2.777344 18.710938 C 7.925781 18.867188 7.925781 19.027344 2.777344 19.183594 C 2.414062 19.457031 2.457031 19.65625 2.898438 19.777344 C 5.453125 19.675781 7.503906 19.4375 9.050781 19.066406 C 9.222656 19.28125 9.464844 19.359375 9.777344 19.300781 C 11.550781 19.589844 13.324219 19.902344 15.085938 20.25 C 14.828125 20.472656 14.507812 20.550781 14.121094 20.488281 C 10.113281 19.667969 6.089844 19.589844 2.050781 20.25 C 2.160156 21.828125 2.242188 23.40625 2.292969 24.988281 C 2.695312 24.988281 3.097656 24.988281 3.5 24.988281 C 3.660156 24.988281 3.742188 25.066406 3.742188 25.222656 C 2.914062 25.5 2.191406 25.5 1.570312 25.222656 C 1.753906 23.417969 1.875 21.601562 1.929688 19.777344 C 2.097656 18.953125 2.542969 18.324219 3.257812 17.882812 Z M 3.257812 17.882812 "/>
<path style=" stroke:none;fill-rule:evenodd;fill:rgb(15.686275%,13.333333%,23.137255%);fill-opacity:1;" d="M 44.292969 18.355469 C 45.015625 18.355469 45.742188 18.355469 46.464844 18.355469 C 46.546875 18.355469 46.625 18.355469 46.707031 18.355469 C 46.828125 18.894531 46.90625 19.527344 46.949219 20.25 C 46.789062 20.011719 46.625 19.777344 46.464844 19.539062 C 45.742188 19.539062 45.015625 19.539062 44.292969 19.539062 C 43.949219 19.3125 43.546875 19.234375 43.085938 19.300781 C 40.976562 19.414062 38.882812 19.652344 36.808594 20.011719 C 36.570312 20.054688 36.410156 19.976562 36.328125 19.777344 C 38.925781 19 41.582031 18.523438 44.292969 18.355469 Z M 44.292969 18.355469 "/>
<path style=" stroke:none;fill-rule:evenodd;fill:rgb(83.137255%,78.823529%,96.078431%);fill-opacity:1;" d="M 43.085938 19.300781 C 43.546875 19.234375 43.949219 19.3125 44.292969 19.539062 C 44.050781 19.617188 43.890625 19.777344 43.808594 20.011719 C 43.40625 20.011719 43.003906 20.011719 42.601562 20.011719 C 42.765625 19.777344 42.925781 19.539062 43.085938 19.300781 Z M 43.085938 19.300781 "/>
<path style=" stroke:none;fill-rule:evenodd;fill:rgb(59.607843%,49.803922%,90.980392%);fill-opacity:1;" d="M 45.015625 18.59375 C 45.632812 18.507812 46.113281 18.707031 46.464844 19.183594 C 45.898438 19.261719 45.335938 19.222656 44.777344 19.066406 C 44.855469 18.90625 44.9375 18.75 45.015625 18.59375 Z M 45.015625 18.59375 "/>
<path style=" stroke:none;fill-rule:evenodd;fill:rgb(81.568627%,77.254902%,93.333333%);fill-opacity:1;" d="M 43.808594 18.59375 C 44.210938 18.59375 44.613281 18.59375 45.015625 18.59375 C 44.9375 18.75 44.855469 18.90625 44.777344 19.066406 C 44.375 19.066406 43.972656 19.066406 43.570312 19.066406 C 43.648438 18.90625 43.730469 18.75 43.808594 18.59375 Z M 43.808594 18.59375 "/>
<path style=" stroke:none;fill-rule:evenodd;fill:rgb(51.372549%,43.529412%,76.862745%);fill-opacity:1;" d="M 43.808594 18.59375 C 43.730469 18.75 43.648438 18.90625 43.570312 19.066406 C 42.921875 19.105469 42.277344 19.066406 41.636719 18.949219 C 42.363281 18.828125 43.089844 18.710938 43.808594 18.59375 Z M 43.808594 18.59375 "/>
<path style=" stroke:none;fill-rule:evenodd;fill:rgb(61.960784%,51.764706%,93.72549%);fill-opacity:1;" d="M 44.292969 19.539062 C 45.015625 19.539062 45.742188 19.539062 46.464844 19.539062 C 46.464844 19.933594 46.464844 20.328125 46.464844 20.722656 C 46.464844 21.988281 46.464844 23.25 46.464844 24.511719 C 45.171875 24.519531 43.882812 24.441406 42.601562 24.277344 C 41.636719 24.277344 40.671875 24.277344 39.707031 24.277344 C 39.789062 24.039062 39.949219 23.882812 40.191406 23.800781 C 41.808594 23.878906 43.414062 23.800781 45.015625 23.566406 C 43.578125 23.328125 42.128906 23.25 40.671875 23.328125 C 41.382812 22.042969 42.425781 21.132812 43.808594 20.605469 C 43.589844 20.539062 43.429688 20.421875 43.328125 20.25 C 43.816406 20.289062 44.300781 20.25 44.777344 20.132812 C 44.464844 20.015625 44.140625 19.976562 43.808594 20.011719 C 43.890625 19.777344 44.050781 19.617188 44.292969 19.539062 Z M 44.292969 19.539062 "/>
<path style=" stroke:none;fill-rule:evenodd;fill:rgb(35.294118%,29.803922%,51.764706%);fill-opacity:1;" d="M 42.601562 20.011719 C 43.003906 20.011719 43.40625 20.011719 43.808594 20.011719 C 44.140625 19.976562 44.464844 20.015625 44.777344 20.132812 C 44.300781 20.25 43.816406 20.289062 43.328125 20.25 C 42.925781 20.25 42.523438 20.25 42.121094 20.25 C 40.734375 20.320312 39.367188 20.4375 38.015625 20.605469 C 39.5 20.109375 41.027344 19.910156 42.601562 20.011719 Z M 42.601562 20.011719 "/>
<path style=" stroke:none;fill-rule:evenodd;fill:rgb(58.431373%,52.156863%,87.843137%);fill-opacity:1;" d="M 32.222656 17.882812 C 32.570312 18.128906 32.972656 18.285156 33.429688 18.355469 C 33.269531 18.511719 33.109375 18.671875 32.949219 18.828125 C 31.71875 19.078125 30.671875 19.628906 29.808594 20.488281 C 28.574219 21.054688 27.445312 21.804688 26.429688 22.738281 C 26.269531 22.894531 26.109375 22.894531 25.949219 22.738281 C 27.445312 21.464844 28.890625 20.164062 30.292969 18.828125 C 30.9375 18.511719 31.582031 18.199219 32.222656 17.882812 Z M 32.222656 17.882812 "/>
<path style=" stroke:none;fill-rule:evenodd;fill:rgb(61.176471%,54.509804%,91.764706%);fill-opacity:1;" d="M 14.121094 20.488281 C 15.90625 20.804688 17.675781 21.277344 19.429688 21.90625 C 19.332031 22.054688 19.167969 22.132812 18.949219 22.144531 C 16.96875 21.585938 14.957031 21.386719 12.914062 21.550781 C 13.398438 21.632812 13.878906 21.710938 14.363281 21.789062 C 12.515625 21.773438 10.664062 21.734375 8.808594 21.671875 C 8.808594 21.511719 8.808594 21.355469 8.808594 21.199219 C 7.023438 20.886719 6.78125 20.886719 8.085938 21.199219 C 8.085938 21.277344 8.085938 21.355469 8.085938 21.433594 C 6.628906 21.355469 5.179688 21.433594 3.742188 21.671875 C 5.101562 21.90625 6.46875 21.984375 7.84375 21.90625 C 7.683594 22.222656 7.523438 22.539062 7.363281 22.855469 C 6.148438 22.957031 4.941406 23.113281 3.742188 23.328125 C 4.773438 23.5625 5.820312 23.644531 6.878906 23.566406 C 6.800781 23.882812 6.71875 24.199219 6.636719 24.511719 C 5.539062 24.542969 4.492188 24.699219 3.5 24.988281 C 3.097656 24.988281 2.695312 24.988281 2.292969 24.988281 C 2.242188 23.40625 2.160156 21.828125 2.050781 20.25 C 6.089844 19.589844 10.113281 19.667969 14.121094 20.488281 Z M 14.121094 20.488281 "/>
<path style=" stroke:none;fill-rule:evenodd;fill:rgb(36.470588%,32.54902%,54.117647%);fill-opacity:1;" d="M 8.808594 21.199219 C 8.570312 21.199219 8.328125 21.199219 8.085938 21.199219 C 6.78125 20.886719 7.023438 20.886719 8.808594 21.199219 Z M 8.808594 21.199219 "/>
<path style=" stroke:none;fill-rule:evenodd;fill:rgb(70.980392%,67.45098%,82.352941%);fill-opacity:1;" d="M 42.121094 20.25 C 42.523438 20.25 42.925781 20.25 43.328125 20.25 C 43.429688 20.421875 43.589844 20.539062 43.808594 20.605469 C 42.425781 21.132812 41.382812 22.042969 40.671875 23.328125 C 40.429688 23.40625 40.269531 23.566406 40.191406 23.800781 C 39.949219 23.882812 39.789062 24.039062 39.707031 24.277344 C 39.386719 24.277344 39.0625 24.277344 38.742188 24.277344 C 39.050781 23.65625 39.453125 23.105469 39.949219 22.617188 C 40.152344 22.539062 40.230469 22.378906 40.191406 22.144531 C 40.671875 21.828125 41.074219 21.433594 41.398438 20.960938 C 41.71875 20.800781 41.960938 20.566406 42.121094 20.25 Z M 42.121094 20.25 "/>
<path style=" stroke:none;fill-rule:evenodd;fill:rgb(27.45098%,24.705882%,41.568627%);fill-opacity:1;" d="M 15.085938 20.25 C 16.105469 20.636719 17.148438 20.835938 18.222656 20.84375 C 18.003906 20.777344 17.84375 20.65625 17.742188 20.488281 C 19.628906 21.019531 21.402344 21.808594 23.050781 22.855469 C 22.808594 22.957031 22.808594 23.117188 23.050781 23.328125 C 22.570312 23.171875 22.085938 23.011719 21.601562 22.855469 C 20.925781 22.484375 20.199219 22.167969 19.429688 21.90625 C 17.675781 21.277344 15.90625 20.804688 14.121094 20.488281 C 14.507812 20.550781 14.828125 20.472656 15.085938 20.25 Z M 15.085938 20.25 "/>
<path style=" stroke:none;fill-rule:evenodd;fill:rgb(47.45098%,42.352941%,70.980392%);fill-opacity:1;" d="M 8.085938 21.433594 C 8.128906 21.667969 8.046875 21.828125 7.84375 21.90625 C 6.46875 21.984375 5.101562 21.90625 3.742188 21.671875 C 5.179688 21.433594 6.628906 21.355469 8.085938 21.433594 Z M 8.085938 21.433594 "/>
<path style=" stroke:none;fill-rule:evenodd;fill:rgb(40.784314%,33.72549%,61.960784%);fill-opacity:1;" d="M 46.464844 19.539062 C 46.625 19.777344 46.789062 20.011719 46.949219 20.25 C 46.949219 21.355469 46.949219 22.460938 46.949219 23.566406 C 46.789062 22.617188 46.625 21.671875 46.464844 20.722656 C 46.464844 20.328125 46.464844 19.933594 46.464844 19.539062 Z M 46.464844 19.539062 "/>
<path style=" stroke:none;fill-rule:evenodd;fill:rgb(26.666667%,23.529412%,40%);fill-opacity:1;" d="M 30.292969 18.828125 C 28.890625 20.164062 27.445312 21.464844 25.949219 22.738281 C 26.109375 22.894531 26.269531 22.894531 26.429688 22.738281 C 27.445312 21.804688 28.574219 21.054688 29.808594 20.488281 C 29.390625 20.972656 28.910156 21.40625 28.363281 21.789062 C 30.914062 21.300781 33.410156 20.628906 35.84375 19.777344 C 36.003906 19.777344 36.167969 19.777344 36.328125 19.777344 C 36.410156 19.976562 36.570312 20.054688 36.808594 20.011719 C 32.839844 20.941406 28.980469 22.207031 25.222656 23.800781 C 25.0625 23.644531 24.902344 23.488281 24.742188 23.328125 C 26.527344 21.734375 28.375 20.234375 30.292969 18.828125 Z M 30.292969 18.828125 "/>
<path style=" stroke:none;fill-rule:evenodd;fill:rgb(61.568627%,52.941176%,92.54902%);fill-opacity:1;" d="M 41.398438 20.960938 C 41.074219 21.433594 40.671875 21.828125 40.191406 22.144531 C 38.738281 22.230469 37.289062 22.273438 35.84375 22.261719 C 37.207031 22 38.574219 21.765625 39.949219 21.550781 C 39.222656 21.472656 38.5 21.394531 37.777344 21.316406 C 38.972656 21.101562 40.179688 20.980469 41.398438 20.960938 Z M 41.398438 20.960938 "/>
<path style=" stroke:none;fill-rule:evenodd;fill:rgb(46.666667%,41.568627%,70.196078%);fill-opacity:1;" d="M 19.429688 21.90625 C 20.199219 22.167969 20.925781 22.484375 21.601562 22.855469 C 21.574219 23.113281 21.414062 23.269531 21.121094 23.328125 C 16.972656 22.523438 12.789062 22.046875 8.570312 21.90625 C 8.570312 21.75 8.648438 21.671875 8.808594 21.671875 C 10.664062 21.734375 12.515625 21.773438 14.363281 21.789062 C 13.878906 21.710938 13.398438 21.632812 12.914062 21.550781 C 14.957031 21.386719 16.96875 21.585938 18.949219 22.144531 C 19.167969 22.132812 19.332031 22.054688 19.429688 21.90625 Z M 19.429688 21.90625 "/>
<path style=" stroke:none;fill-rule:evenodd;fill:rgb(47.058824%,41.568627%,70.588235%);fill-opacity:1;" d="M 41.398438 20.960938 C 40.179688 20.980469 38.972656 21.101562 37.777344 21.316406 C 38.5 21.394531 39.222656 21.472656 39.949219 21.550781 C 38.574219 21.765625 37.207031 22 35.84375 22.261719 C 37.289062 22.273438 38.738281 22.230469 40.191406 22.144531 C 40.230469 22.378906 40.152344 22.539062 39.949219 22.617188 C 37.273438 22.699219 34.617188 22.976562 31.984375 23.449219 C 32.546875 23.527344 33.109375 23.605469 33.671875 23.683594 C 32.917969 24.054688 32.113281 24.136719 31.257812 23.921875 C 31.550781 23.679688 31.46875 23.5625 31.015625 23.566406 C 30.328125 23.707031 29.644531 23.867188 28.964844 24.039062 C 28.507812 23.835938 28.546875 23.679688 29.085938 23.566406 C 30.4375 23.214844 31.804688 22.9375 33.191406 22.738281 C 33.75 22.414062 33.75 22.214844 33.191406 22.144531 C 30.566406 22.75 27.992188 23.417969 25.464844 24.15625 C 30.554688 21.855469 35.867188 20.789062 41.398438 20.960938 Z M 41.398438 20.960938 "/>
<path style=" stroke:none;fill-rule:evenodd;fill:rgb(72.156863%,68.627451%,83.921569%);fill-opacity:1;" d="M 8.085938 21.199219 C 8.328125 21.199219 8.570312 21.199219 8.808594 21.199219 C 8.808594 21.355469 8.808594 21.511719 8.808594 21.671875 C 8.648438 21.671875 8.570312 21.75 8.570312 21.90625 C 8.40625 22.222656 8.246094 22.539062 8.085938 22.855469 C 8.003906 23.011719 7.925781 23.171875 7.84375 23.328125 C 7.683594 23.644531 7.523438 23.960938 7.363281 24.277344 C 7.191406 24.492188 6.949219 24.570312 6.636719 24.511719 C 6.71875 24.199219 6.800781 23.882812 6.878906 23.566406 C 7.097656 23.378906 7.257812 23.140625 7.363281 22.855469 C 7.523438 22.539062 7.683594 22.222656 7.84375 21.90625 C 8.046875 21.828125 8.128906 21.667969 8.085938 21.433594 C 8.085938 21.355469 8.085938 21.277344 8.085938 21.199219 Z M 8.085938 21.199219 "/>
<path style=" stroke:none;fill-rule:evenodd;fill:rgb(47.058824%,41.960784%,70.588235%);fill-opacity:1;" d="M 8.085938 22.855469 C 12.808594 22.640625 17.476562 22.992188 22.085938 23.921875 C 17.355469 23.472656 12.609375 23.273438 7.84375 23.328125 C 7.925781 23.171875 8.003906 23.011719 8.085938 22.855469 Z M 8.085938 22.855469 "/>
<path style=" stroke:none;fill-rule:evenodd;fill:rgb(47.843137%,42.745098%,72.156863%);fill-opacity:1;" d="M 7.363281 22.855469 C 7.257812 23.140625 7.097656 23.378906 6.878906 23.566406 C 5.820312 23.644531 4.773438 23.5625 3.742188 23.328125 C 4.941406 23.113281 6.148438 22.957031 7.363281 22.855469 Z M 7.363281 22.855469 "/>
<path style=" stroke:none;fill-rule:evenodd;fill:rgb(62.745098%,55.686275%,94.117647%);fill-opacity:1;" d="M 43.085938 19.300781 C 42.925781 19.539062 42.765625 19.777344 42.601562 20.011719 C 41.027344 19.910156 39.5 20.109375 38.015625 20.605469 C 39.367188 20.4375 40.734375 20.320312 42.121094 20.25 C 41.960938 20.566406 41.71875 20.800781 41.398438 20.960938 C 35.867188 20.789062 30.554688 21.855469 25.464844 24.15625 C 27.992188 23.417969 30.566406 22.75 33.191406 22.144531 C 33.75 22.214844 33.75 22.414062 33.191406 22.738281 C 31.804688 22.9375 30.4375 23.214844 29.085938 23.566406 C 28.546875 23.679688 28.507812 23.835938 28.964844 24.039062 C 29.644531 23.867188 30.328125 23.707031 31.015625 23.566406 C 31.46875 23.5625 31.550781 23.679688 31.257812 23.921875 C 32.113281 24.136719 32.917969 24.054688 33.671875 23.683594 C 33.109375 23.605469 32.546875 23.527344 31.984375 23.449219 C 34.617188 22.976562 37.273438 22.699219 39.949219 22.617188 C 39.453125 23.105469 39.050781 23.65625 38.742188 24.277344 C 35.355469 24.214844 31.976562 24.332031 28.601562 24.632812 C 27.386719 24.808594 26.261719 25.203125 25.222656 25.816406 C 24.667969 25.933594 24.101562 25.972656 23.535156 25.933594 C 22.539062 25.253906 21.414062 24.898438 20.15625 24.867188 C 15.90625 24.378906 11.640625 24.183594 7.363281 24.277344 C 7.523438 23.960938 7.683594 23.644531 7.84375 23.328125 C 12.609375 23.273438 17.355469 23.472656 22.085938 23.921875 C 17.476562 22.992188 12.808594 22.640625 8.085938 22.855469 C 8.246094 22.539062 8.40625 22.222656 8.570312 21.90625 C 12.789062 22.046875 16.972656 22.523438 21.121094 23.328125 C 21.414062 23.269531 21.574219 23.113281 21.601562 22.855469 C 22.085938 23.011719 22.570312 23.171875 23.050781 23.328125 C 23.613281 23.527344 24.175781 23.765625 24.742188 24.039062 C 24.960938 24.027344 25.125 23.949219 25.222656 23.800781 C 28.980469 22.207031 32.839844 20.941406 36.808594 20.011719 C 38.882812 19.652344 40.976562 19.414062 43.085938 19.300781 Z M 43.085938 19.300781 "/>
<path style=" stroke:none;fill-rule:evenodd;fill:rgb(48.235294%,40.392157%,73.333333%);fill-opacity:1;" d="M 40.671875 23.328125 C 42.128906 23.25 43.578125 23.328125 45.015625 23.566406 C 43.414062 23.800781 41.808594 23.878906 40.191406 23.800781 C 40.269531 23.566406 40.429688 23.40625 40.671875 23.328125 Z M 40.671875 23.328125 "/>
<path style=" stroke:none;fill-rule:evenodd;fill:rgb(23.529412%,19.215686%,35.686275%);fill-opacity:1;" d="M 46.464844 20.722656 C 46.625 21.671875 46.789062 22.617188 46.949219 23.566406 C 47.25 24.160156 47.410156 24.789062 47.429688 25.460938 C 46.0625 25.398438 44.695312 25.320312 43.328125 25.222656 C 43.15625 25.007812 42.914062 24.929688 42.601562 24.988281 C 42.601562 24.75 42.601562 24.511719 42.601562 24.277344 C 43.882812 24.441406 45.171875 24.519531 46.464844 24.511719 C 46.464844 23.25 46.464844 21.988281 46.464844 20.722656 Z M 46.464844 20.722656 "/>
<path style=" stroke:none;fill-rule:evenodd;fill:rgb(64.313725%,57.647059%,96.862745%);fill-opacity:1;" d="M 38.257812 24.75 C 37.871094 25.429688 37.550781 26.140625 37.292969 26.882812 C 26.753906 26.882812 16.210938 26.882812 5.671875 26.882812 C 5.9375 26.621094 6.097656 26.304688 6.15625 25.933594 C 11.109375 25.253906 16.097656 25.058594 21.121094 25.34375 C 21.953125 25.554688 22.757812 25.832031 23.535156 26.171875 C 24.847656 26.332031 26.054688 26.054688 27.15625 25.34375 C 30.847656 25.023438 34.550781 24.824219 38.257812 24.75 Z M 38.257812 24.75 "/>
<path style=" stroke:none;fill-rule:evenodd;fill:rgb(84.313725%,80.392157%,97.254902%);fill-opacity:1;" d="M 38.257812 24.75 C 38.582031 24.75 38.902344 24.75 39.222656 24.75 C 38.839844 25.425781 38.519531 26.136719 38.257812 26.882812 C 37.9375 26.882812 37.613281 26.882812 37.292969 26.882812 C 37.550781 26.140625 37.871094 25.429688 38.257812 24.75 Z M 38.257812 24.75 "/>
<path style=" stroke:none;fill-rule:evenodd;fill:rgb(64.313725%,57.254902%,96.470588%);fill-opacity:1;" d="M 39.222656 24.75 C 40.363281 24.714844 41.488281 24.792969 42.601562 24.988281 C 42.914062 24.929688 43.15625 25.007812 43.328125 25.222656 C 43.808594 25.777344 44.292969 26.328125 44.777344 26.882812 C 42.601562 26.882812 40.429688 26.882812 38.257812 26.882812 C 38.519531 26.136719 38.839844 25.425781 39.222656 24.75 Z M 39.222656 24.75 "/>
<path style=" stroke:none;fill-rule:evenodd;fill:rgb(59.215686%,52.941176%,87.058824%);fill-opacity:1;" d="M 1.570312 25.222656 C 2.191406 25.5 2.914062 25.5 3.742188 25.222656 C 6.699219 24.769531 9.675781 24.652344 12.671875 24.867188 C 8.960938 25.148438 5.261719 25.503906 1.570312 25.933594 C 1.570312 25.699219 1.570312 25.460938 1.570312 25.222656 Z M 1.570312 25.222656 "/>
<path style=" stroke:none;fill-rule:evenodd;fill:rgb(27.45098%,24.313725%,40.392157%);fill-opacity:1;" d="M 7.363281 24.277344 C 11.640625 24.183594 15.90625 24.378906 20.15625 24.867188 C 21.414062 24.898438 22.539062 25.253906 23.535156 25.933594 C 23.535156 26.011719 23.535156 26.09375 23.535156 26.171875 C 22.757812 25.832031 21.953125 25.554688 21.121094 25.34375 C 16.097656 25.058594 11.109375 25.253906 6.15625 25.933594 C 5.914062 25.933594 5.671875 25.933594 5.429688 25.933594 C 4.210938 25.976562 3.003906 26.136719 1.808594 26.40625 C 0.679688 26.304688 0.601562 25.910156 1.570312 25.222656 C 1.570312 25.460938 1.570312 25.699219 1.570312 25.933594 C 5.261719 25.503906 8.960938 25.148438 12.671875 24.867188 C 9.675781 24.652344 6.699219 24.769531 3.742188 25.222656 C 3.742188 25.066406 3.660156 24.988281 3.5 24.988281 C 4.492188 24.699219 5.539062 24.542969 6.636719 24.511719 C 6.949219 24.570312 7.191406 24.492188 7.363281 24.277344 Z M 7.363281 24.277344 "/>
<path style=" stroke:none;fill-rule:evenodd;fill:rgb(18.039216%,16.470588%,26.27451%);fill-opacity:1;" d="M 38.742188 24.277344 C 39.0625 24.277344 39.386719 24.277344 39.707031 24.277344 C 40.671875 24.277344 41.636719 24.277344 42.601562 24.277344 C 42.601562 24.511719 42.601562 24.75 42.601562 24.988281 C 41.488281 24.792969 40.363281 24.714844 39.222656 24.75 C 38.902344 24.75 38.582031 24.75 38.257812 24.75 C 34.550781 24.824219 30.847656 25.023438 27.15625 25.34375 C 26.054688 26.054688 24.847656 26.332031 23.535156 26.171875 C 23.535156 26.09375 23.535156 26.011719 23.535156 25.933594 C 24.101562 25.972656 24.667969 25.933594 25.222656 25.816406 C 26.261719 25.203125 27.386719 24.808594 28.601562 24.632812 C 31.976562 24.332031 35.355469 24.214844 38.742188 24.277344 Z M 38.742188 24.277344 "/>
<path style=" stroke:none;fill-rule:evenodd;fill:rgb(81.568627%,76.862745%,96.470588%);fill-opacity:1;" d="M 47.914062 25.222656 C 48.726562 25.390625 48.804688 25.707031 48.15625 26.171875 C 47.636719 25.949219 47.558594 25.632812 47.914062 25.222656 Z M 47.914062 25.222656 "/>
<path style=" stroke:none;fill-rule:evenodd;fill:rgb(85.098039%,81.176471%,98.823529%);fill-opacity:1;" d="M 5.429688 25.933594 C 5.671875 25.933594 5.914062 25.933594 6.15625 25.933594 C 6.097656 26.304688 5.9375 26.621094 5.671875 26.882812 C 5.429688 26.882812 5.191406 26.882812 4.949219 26.882812 C 5.109375 26.566406 5.269531 26.25 5.429688 25.933594 Z M 5.429688 25.933594 "/>
</g>
</svg>
